/* XPM */
static char *t128[] = {
/* columns rows colors chars-per-pixel */
"128 128 36 1 ",
"  c #1D1D1D",
". c #252525",
"X c #272827",
"o c #2C2C2C",
"O c #2F302F",
"+ c #333333",
"@ c #373837",
"# c #3B3B3B",
"$ c #444444",
"% c #4C4C4C",
"& c #535353",
"* c #5B5B5B",
"= c #646464",
"- c #686768",
"; c #6C6C6C",
": c #706F70",
"> c #747474",
", c #787778",
"< c #7C7C7C",
"1 c #7F807F",
"2 c #80807F",
"3 c #807F80",
"4 c #7F8080",
"5 c #838383",
"6 c #888787",
"7 c #878887",
"8 c #888887",
"9 c #878788",
"0 c #888788",
"q c #8B8B8B",
"w c #908F8F",
"e c #908F90",
"r c #939393",
"t c #989798",
"y c #9A9A9A",
"u c #A0A0A0",
/* pixels */
"<>><<<,><<51<55<>>>;=##<55<<55551111111,,,,:%o=<,<<1<<551<<,>:,1*X*,11117751;+.&><><<<5<><555qqqq55555<55555551<55>*o%<55<<<5<<>",
"<<,>,,1<>>>;>,<;;;;=&+$<5<<<555<111111,,,,:%+&>1<1<5555q41<1,>,,%O*1,<<5q755;+o+=><<<1<<355<<55q655<54<q<<5qqq555<=+$;<<<<5<<>><",
"<<>>>>,*###@###++##$@.$<1<><<<5<1:1:11,,1,*X%,15115575eq7151,>,>&X=<,1178555;+$%+*<<<<<<5<<<><555555<<55<<<55qq5<=+$;<5<<<5<<<<5",
"<,>>>:*O#$$$$$$#$$$$$o#,<>>;<5<<11:1:,111=X&>117711155wq51<>,>>:%X=1>1q75557<@$=%o*><<<55<,<55555<<qq<<<<<<5q555=+#;<<55<<5555<<",
"<1<>>&X%,,<>><><>>;=*##><><><<<>,1::::,,:%O:1117555<<455771,,1,:*X*,<,115554>#%=>$+=><<55<<5554<<15qq5<<<<<5q5<=#$=<<<5<555555<<",
"><2>*o%>55<55<<55<<<=##:><;;><><:::11:,,,&+;17115555455<1111,,1:&o*:1>,,<555>+%<<>$+*>5<51555><5555q55<<<>><55;O#;<;<<5555qqq55<",
"><>*o%><55<5<55555q5;+#;><>;,>>>1::,1:,1:&+-1111<<551,<<11,1,1,,&o*>,:,1<5q5>+%<5<;#o=255q55q<<q55055q<<<5<55;#o+=<>555q5555555<",
"<>*o%><,<,<>555557<5>##>>>>;><<<,>::1::11%O=,,1,<<555,><11::111,%X&,>:,1<<55;+%555<;$+=<55qq555qqqq5q55<5<<<;#$;%+=<<55q5<<5555<",
";*o%>,>><5<><2<<55<<>##>>;;=>>5<,>>>,::,>%o=<<<><155<<>,<<<<1,,:%.&>>><55qq<;+%<5<5<=%+*47qq55qeeqeeqq5555<*+$<;;$+&;>>>>;=;;>>;",
"@o%,<>>><<5<><<5<<5<>##><>;;;<3<,>><,,,,;$o*;>>;,<<1<>:>11<11,,:%.*>><<<55<5;+%<<555>>%+=5554777wqweqq65<,=+$;q<5>$o+#+###+++#+@",
"$*>55<:<5<<<><5<<<5<;##><>>>><<4>;>,,,,,;%o=&;;>>>>>,>>><<<<,:,:%o*><<><q558>+%5q555<5>%+=,>5757qq5qq55<>=#$;5eqq5;$ +#$$%#$##$$",
">,<<55<<<<54<<5<<<<<;#+***&&&***&&&&*&&&&#o%&&&&*;>>,><<<<>>::>:%.*:>,45q555>@%,<55559<>%+*<5474<7q85<<>*@$:55q5<5<>$+*>;;>>>;;;",
"<<<1<55<>555<<<<<<<<;+XoooXoooo..ooXooo.oo.ooooXo&;><<<<,,<<:;;;%.%>>><<<5<<>+%>5q755455:%+*,1,157q57<<=#$;<<q5555q<>$+=;>5<5<<<",
"55115>11<<<<5<<5<<>>;+$==;**===*=**=***===***&&&$o&;><<<<<<<,;>-$o*::>><<1<<;+%<9579555q<;$+=,145<q5q5=$$>555qq<<<55<;$+*<<<5><<",
"555<<<<555<<5<<55<5<>@%>;q<555555<<2<<<<<<<<>>>;;$o%;155<1<<<,:%O$=->>;><>,,=+%<535q55<551>%@=,7555qq;#$>15q5q5555<<<>;$+&><<<>4",
"q5<5<<5<<55<5<<<5><<:#$,<5<<,<5<<,<<53<<<<5>><>;*;%o%><<115<,;%O%-::>;;>,>;>;+%><<557<<5qq5>%+=,<>77;#%>55555<55<<2<<><;$+&<q555",
"q4<5<<<15<<><<<><<>>-#$;<1<5<5<<<>><55<<<><><><<=;*o.*><5<1<;%o&;:::::::::11=X$:11177717qqwe1%@:<=5;@$>5<<<<1<55555555<,*oo&<5q5",
"5<<<5<<55<<<<;<<<<<>;#$>1<5574<53<,><<1<5<><>>>,>=$+#+*<<><>&o&;,,:::1;111:1;+%::111177weqwe::@*55;#$;<1<<>,<<55555<<5<<=+o+*5q5",
"<<,<<5<<<5<<>>5<<<<>;@$<5<<57555<5<><<45<<<<>>>>=##&&&o*>*>&o&;<,,::>::11111=O$:11115577qweee<$&,=+$><1,<<<<<<115595<55<=+%$+=55",
">>><<<<<><<><55<<<>>;@$>1<<555<53<5<555q<55<>>>=#o*>,>%+&;&o&><<1,-,::,,:1::=+$:11,1111777wqt1@%;#$>5<><55<><<5<5q555<<<=o&;%o=>",
"<><5<55<<5><555<5<>>;#$>55q555<<4555q5qqq7555>=$#*;><<>&+#+&><><111;,:1:1;:;=o$1<<55,115ww7qq<#$#$:55<<<,<,>,115q5<<55><-o&1,%+&",
"=><25<<<<5<5555><<<5>#$,55<5<5<>5q<55q755<55<=#+*;><5<<>% $;*<<>:1;1:::;::;:=o%:<1<<1755weq7q,#o$>5q<1q1<<,><155555555<<-o&>>>%o",
"+*<<<555<55qq<5<,,58>#$,q55555555555555q5<<<=#+*=>>5>>><-%o&;<<>::1:;;;;;;;;%X&1<<<<757qqqeqq5#+>5551515<,>><551555q5<<<=o%;;1>&",
"#+*><<<><<<5<<3<<<55>#$,555q555<5555577eq5<=#+===<<<>55;>>%o&>><11:::1:;;:=%X$;:<><<71<57qeee5#%5q55q1<1,>:<,<<><<<<5<<>=o$><,<:",
"=$+=><><<<<5<<<3<32<>#$<555555q55557q55q5<;#+*>>>><<><<><>;%o%;<:::1:;::;;%.%;;;>><5<<55qqqeq<#&15<51<551<>><>>,,1,,1,,,=o%:,<,<",
">;$o*<<<<<5<5<<<<4<5>#$>55555qq5q5qwq15q5-#+=<<><><;;><>>>>;$o&>11::;;;;;$X$&=;;>><<<<<<5qqeq;+&5<<<<<55<<>,<,,>111,1,,,=o%>,<,<",
">>;$O*><<<7555<><<5<*.$>55<5555qqqeeq<5q:$+=<><<>>>=>;>>><>>;$o&111;::;;%X.$&=;;><<<<5<<57qqq;+&<<<,555<<5<>><>,1,,,1,:,=o&><1<>",
"<>>;$o*<155q55<5<55=+.$><55qq15qqwqqq5q>$@=,<>;>>;;>;;;>>><5<;$o%;:::;;%X%%X$=*;>>><<<<<<<575>+%<1>55<<5<><<<<>,,11,11,,=o%><<<<",
"<>>>;$o*<<5qq5<<5<=+##$>5555q5557q5075,$+=,<<<>>>;=>:>;=;,<<<<;%X&;=&;%X&=*&.#&:>:,55<<<<<5q5;+$>*;5<555<>5<21151111<1,<;O%>,<11",
"><><,;$o&><45<<>>=+$=##><5<5555qqqqq7>$+=><<<>>;;:;>>>;;;<1<,<5:&X%=*%X%;:;;%X$;>><<5151<<<5<>$o*;><<5<5<><<<<557151>>,,=O%;,15>",
"><<<>;=$+*><55>>=+$;<*o&><<<<55qq5q5>%#=<5<55<>=>>;><<>>>1<<<<<<;%X%%X%;:1::;%X$;<<<155<<1<<<<;$+*><<555><<<<<11<<1,,,<<*o%<>15<",
"><<><5<>$o*5>><=+$>55<*o&><555<5555>%+;5<<755<;>><;<><<<>>><75<<1&$..$;,:::::;&X$:155<<<>><<><<>$+*><<<<<511<11>,1<<<,<,=o%<<55<",
"<<>><<5<;%+=;>=+$;5q65<*o&>55551<<;$#=>575<55<>>,<55><<<>><555<<<=$X$=>;;=;;;;=%o%><<<><<><>>><5;%+*><<<111411,:1,,,,,:,=X%,,111",
"55<<<<<55>$+==+#=<55555<*o&><<5<<>$#;<55552<<5<><<5q2<<,>,1,5<<5,%o%->:;;;=;;;;*$o*>>5<><<<>>><<<;$+*<<<11:,1<:,1,::::::=O%11,1,",
"555<<<55q<;%o+#=><3555q5>&+&><><>%#;<<q71555<55><4<q5<>><<<52<5<&o%:>;;>;>>>>;;;&o&>><<<<55<><<<55;$+*:>:1,:,,,1,111,<,<-O*,,1,,",
"<<<<<5575;<*o+;551<5<<55<>&.&=*>$+;55<55<<55555<<<55qq5<1,<<<4<%o%:,>;;;>;;;;=>;&o&;>>;<<<<5>>>55<<>%o*;,1:,,,,:,111111<-O%,11,:",
"<<<555eqq5=@$;>55<5<<595<<>&o%*#+*,5e5,,4<,<,<<<<<55<5q5,<11<:%O%=>:;;;;;>>>>;>>&o&>>>>,<>,<<<<5<55<;$+&:,:,<,>1111111,1-O*11,,,",
"><55qqqq7-++;,,<<<<<<5q555<>&o+#*<555q5<51<>><1<<55555<51,15>%o%-;:;>>=;;;>;>>>>*.&>>>><<<<<<<<<<<<<<;#o*-:,,<<,111,,11,=X&1:,,,",
"<<55qqq5;#$=>,<,>><55<755<<5<%.%*<55555<<<<>><,,><,>55<57<<>&o&-:,::;;==;>;>;><>*.&<>><>><>><<5555<<<>=#o*>>>,>,,,,11111=O%::,1:",
"<555qq5=+$;>,1<>>55<55<<<<555>&O=<5<><5<<,<55<,<<>><<<555<:%o%;>,,:,;;;;;>><5;><*o&<>>>>>>;<55557q<>>>>=$O*,,,><::,11111-X%::111",
"><<551=O+=*><>:>,<<7q<,<55<5q5<*+*<>>><551>5<<5<<<<<<<55<>&o%=><1,1::1:,;>><<;<>&o&<5<<<>>>><<<><5>>>><>=$o*>>,>,111111,-X%::,11",
"<<<55;+++%->>>;,<>,5555555<5qq>>*o%;>>>>575555<>>55<><53;&o%=;><,,1,1111>;;5><<>*o*555<>,><<<55<<>>>><<>>=$+*;:><1<<5511=O%::,:1",
"1<52;#$-&O*>>>><>>55575<555<<q>>=oo%;><<<1<555<<<><<<5<<&O%*>><<:,,:,1::>><<><>>*o*><<<><>>><<<<<<<<55<>>;=$o&;>,,,1151:=O*:=:11",
"<54-@$>=<*.&;1<>><<55<<<<<5<<5<=+$%o&;<<4<><55<<<>>><<<&o&;=><<>,1:::,,:>5<<<<>**o**><<<<<>>>;>>>><5555<>*;=$o&;:,:,,<<--X%:=1,1",
"*=&+$:<>1,%o%,<,<>>55<<5<<><5>*+%==*o%=**&&*******&&=*$o#%***&*&=&%%&&%*&&*&&&&&$o$&&&&&**&&&&&&&&&**=**&*&&%+o$%&%****=%O#&&***",
"ooo$:<<71,>*+&:<<5<555q55<3<;*+$>>;<&..+o+ooooo.oooooo.o+oooooooXXOXXXXXo..o..o.. oooooO.oooo. .oooooooooo.ooo .XXX.XOOXOXXXXX .",
"==;<1577,42>*o*,<<545<55<<5<*o%;<57q:%+#*&&;***=**=**=*===**=*=*=====*&&*******==****===*=*&$o#*&**===*=*=****&&*===-==***==%X$&",
"55557qq55871,*O*<5qq555<<<>*+$><<<<<,>&.*=><>><5>><><5<5<<,<<<<51,11:111;>><<,>>><<<<,><>*<*+$;<<<>555553>><><><,<,<11:,:*:=+$;1",
"5<<3qqq57qq557*+=,7775<45,*+$=5<<<<><<:&o*>>5<<515<<<145<<<5<<551151,111>-:1,:1:;>,<<<<,,;*+%:555<55<55q5><<<5<51,,><5<<1>*o$;,1",
"555qq<555575779%@>qe77q75=+%><<<><>><<<>*O%:<q,1451<<<5<<<<>>555711,,,11:,,:,1,1>>>><54<>=O%>q5555555<5q5<5555551,11<55<<=+$:5<7",
"qq55qqqqqq77eqq*+:eq7qq4-+$;><<<<5<<>>5<<&+&>55<<5<5<<<<<>><5><q417,,11:,,::1111<>;><15<*+$<5q55qq75q55q5<555555117555q5=+%>575q",
"qq5qqqq57wyt7q7*+>eeqe7-@%<<<>>55<<><5,>5,%+&<q5<5<<5<>><><5<>55,155,,,,1,11111,<,>><5<*X+:5qq55e57qqq5555555555545775q;+%,5<557",
"eq5q9qq577eyqe9*+>yye5;#&<qq5<<55<<957<<<<:&o*,755>3<<<5<5<5<5q<,5<,,11::,7111,,><<<<5=+o$<5qqqq0qqq55555q5q5qq545575<=+%,5q5e5e",
"qqeeqqq577eyee7*@;4e7-@%<755555<<5555<5q55<;*+&<555<555<<<<<<5><511<,,,,1,177,:1<<<<>=+$##<517q5qqqqq5q55q55q5557q85<*@$<w7eqqqw",
"5weqqqq<wweeetq*@;;q=+%,1<55555<>275557q575>>*O*555<2555<<><5<>,,<<1<:1711711111<<<<*o$=@$><><<<qeqqeq3<155556557q5,*+%<qqqe5qe7",
"qeq55eqq7eeewe4*+:7;+%,<555<<,<5<3qqqew55<5<<<*#*2<55555<<<<><5<,1,>,;-:--:,-;;:-;;*+%;>#$>55<<5qeq5q55555qqq55545>*+%,q545q7qqq",
"qw4577wq7eee574*+==+%<5577qe65<55<5qwtw5q5<455<&+*<5555q5>><<5<<45>>;$ooOO@@@@+++++.$>5<@@,74477qww777<4qqqq50q<5<=+%;5q755qq5<q",
"q51qqq7wqqeq7e7=+&@%,5q75q7qqq5<qq2qqe5774<<555<&+*><555qq5<q52<555>$+%&%%%%%%%$%%%*><<,#$>5447wqqwwqw45qqq5qqq55<&+;;q5555q5<<5",
"5<1qeye7ew7qeq7*o+%3q577539eqq5<qe55wq575<55<47-<*+&>55<<55q5<<<q5;$+->11,1,<11,><555<=<$$,7777eetqq7ww7qqq5qq55<5%#><q555qq<55q",
"455qweeewq7q755*.%<ee7<54q7qq5qqqe5e5555<q1>;:>;>;%+&>55515595<55;$#=<<51711<8q7555<5<53$%=,q7weweeee5qwqqqqq5q5>=&#>55q575457q<",
"<1q7qeqew47w777*o;qqew14q5<7q7q55eq5q45,5<%@####++@o.&<qqq555qqq;##=5q5<<55<qqwqq7544<5,#$==--::;-:::--:;>;;=====*$+><5<<<<<5<5>",
"<<q5wq7e7eqeyy7*+:eqt7q4455qq<<5ewqee<<5,&+%&%&&&&%%$+&4qq5<555;##;5<75<,5<<55w75595455:#X+OXX++@@O@+++Oo++++ooooo.@>qq<>>,<<><>",
">>7557qeeew77te*+>qyw47,>5q,<<<5755ew75<&+-5q7575555>%.%<qqq<<>$#>qq557<<55<<4574577577>$+%*==**==-=---=*;===****&#+>qq5<<41>>><",
"<<q555qee7qw7q7=+<eee475555<<7<<7q4qyq,%o*5weueqqee<>;oX&<5><;$#;5eqqqeqq7q<,541595qq57<#$=:74117w77tewwq5qqq5<5<*&+>555><5<,<<5",
"7<55w75eq15wwtq*@<teq5qq7<:<74,7e54ey4$O=1477erteye5>;+#+*>;>$@;5qeqeeyew7715545qq5qq5q<#$<q55qq7q7eyew7qq5qq5qq5>&#>q5q5<545q55",
"q<51q77q7554wye*@>w5q<qq1,4471,w74ey7%+-7ewqw44qwtee5;o%&+*;$+;15eqqewtte517<<5qq5qqq55<##<qq55eq5wytttwq555<qq5<>%+;5<555q555qq",
"qqq<554517755wq*o<q5555<1<7q,47147e7*@-1qeqqte7weeeeq>o&>*++#;<45qww5qwq7751<5575555qq5<&o*<5q55eeteqwwwqq5<5q5<<>%+;<355555<5qq",
"5qq444447etqwe5*o>555<1<<57<<74,7w,%+=,4wrte7ytyytqq5=o&<<&.$;*>51qq5eqq7tq7q85q554qqe7<>&+=<7qqeytwq7ww5q75q4<<<>$+;5q5<<5q555e",
"75qq757wq7eyete=+;1<5<<14<554w177<&+*,7714yy7yyett775;+*:=>&o%>515q7<5eewtweq7qq55555q5555&+=4qwrqeyyqqe5q5q555><;$+;5<<<<5q555q",
"qqq55wee7qeytqq*+;5355755<55q14w4%@-47twq77yttuyeyw7q;o&>,1>&+*,,57q<<qe77tteee75553<5555q4&+;qtrrutee7qq<55<<5<5>$+=<55>55q5<5q",
"qqq<77757teeqq5*+>q4<<qw<q77q447*#=<wyy777ewyeyywyqwq;o&<<15,&+*>57551qq47eteweq597<15q53eq<&#-qryuq7eq7q55q<<5<5>%+;555<4q5555q",
"95557etwtye55<<&+;5554qeq574w4q*+=757ew447teqe7t747wq>o&5<<4<>&o*,5q55q57wwqeeqq7555577<>5w7<*+=qerte74q5qqq55<4<>%#><<q<5q55q58",
"q5qwttwte7555,,*+;qwqqqerqqwr7*@=5ete477etey77<774577;o&5<44<5>&+*<q5<<574777q7q9355qqq51447q1*@-4rryq7e7qqq5q45<<%$><8q55q555<5",
"3<wewwteq55q<>>%o;qqqeeqqtrtq*#=5qet7weeytytw7ww7715q;o%,4<<>45<*+&>55551<7qqeqqq595eeeq55<1wt7*@=7wqqq5qe753559q5&+;5q55qq5<<55",
"><eq47ww55eq4;*%+&>eq7eewrt7*@-ryeewwrwwyteqq7ww75175;o%><4455q5<&+&<5<<,<75qe7qq7q<qwq75544qet7*@=777q5eq775qqqeq%+;q55q555<<5<",
";:>,>>,>;><>;==%+&=>>,<1111*#;qtyewq7e7twqq51,,1755<5;o&<7447q555<*+&><<,<517qeq757qq555<5ww7wee1%$4w7q7455q75qqq5%+,qq55<>;=;>:",
"@@@@@$+++##++@#O.++@###@####;qyyeeerty775<5wqqq5qq<55:o&4147744wq7<*+%;>>>>5qqqeqqqqq75q77wqettq4*$>qe744577q79q2<%#>55e5<*+++#+",
"%%%%%%%%%&%%%%%$$$%$%&#o%=*:qqquyrywrw77q755<5e<5q<97;+&,47qwwwqqq5<&o&:<<4<57qqeeq77717qwweeww77*#,wteeeq55qq755<%#><55>&o$&%%$",
":4<,111,><>><,>>;>>,15%#>444wrttwqyrqe7eee55><<>q5<q7=+*77qee745q55<;%o%><<<5555wqq975qq7qeetteq7=@>7wqqeq5457975<%+;55<*+%><<,>",
"47q4741,><<<<<<4<<1,=5%@1:4rqrytqqqyqweeeq55<<<<55<55;+*47wwwwwwqqq<<>%+&,15545555qqq5eeeqqeyeee7%@>77qeeqqeq5555<%#;=<&O%>2<<<>",
"77qqq5<<<555<5557453<<&+;qeyyq4wrqqrr7ww747445<<<>157;+*qweeqww7ew451<;&+*>15<><<14575qq5qqqqqq55&+:555qeqqq755<5<$#>>&+*>55<><<",
"17qqq555<,<75509q5<5q5&+;9yyrueertrrwe7w7,1445<1>15qq;o*qeetee7weq7555<:%+*,5<<<<,4755q55qq5<qqq<&+>5<55q555555<<<%@;*+*<55<5q55",
"<<7q555<<<q555587qqqq5&+>qeyryyq7ryr7w7444,,4,4<<5155;+*5qwqeeqeeeq75<5<<*+&:<<<<<<<<5qqq5555555<$#;5555qqq55551<<%+%o&<5<<>5q5<",
"55955<<<<<55<5qqqweeqq&@,qqeurwe77rr77q1777411,:<<555-O*5575qeeqee7q757>;<$.%,,<<>><5<<5qq7q5q55<%@;<q97q5<57q75>>%.o&><<<<<5<<5",
"q5qq5><5q<qq5<qqqw7qq5&+:7eetww7q7qtq44qq55545><>:54<-O&157qwqqqqq55q5q5<;#oo&>5<><55<5555q5q5555%+;54<>55<5q55<<>$ %;<5<><<<55q",
"555q5<9qqqq55<557q77q7&#:5eetw7qqreete115q51547<<<1::>o&5qw7qq45q7<77qq<;##=&o*><<<5>5525qq51<55q&#>4<<57q7qq55<>%o%><,>>>><5<55",
"<754q5q5q75qq55<qeqqeq&#>7eewrwerryr411,<<<<<<<><<,<<=+&5w7q7q75q557ee5;##;:=+%>5<<<>575q55<<<<=5&+>=553qq55554<&.$=>>>>><<><<>>",
"><<>5q75q55q55<5ee5weq%#>7qwwrrqqq4=%%%$$$$$$$$%%$$%$#.&qqqeq755q5qweq;##;5;=#%>555<>5555<<3<5<<3%+;<5<5q555<<;%oo#=;><><5<<>><>",
"5<<<<555qqeq5<5qeq5qqq&+>55qq5qeq<%+$#$$###$##$##$$$#@.&5qeqqq5555q75>+#;45q;+$;>>>=**=********=*$+&=*********%X&*+$=<<<,1>><>;>",
"<<><><<535eq5qee55qq55&@>5q555qq<&+;<><<<>;<><<<,>,<<=O&5qqqq95q1553=@$=<5<<=+$>;=%oooOoooooooooooooooooooooo. %;;=+#;5<<<<><5>>",
"><<<<5q55qq5q57eqqq55<&#>5q5555>%+=qq5q05<<595qq77q5q:o*<;yq557qq5<=#$-<<<<>-+$>;$+&;*==*&**=*===**=====-;-*$o%>;;<*o$;<<<<>>55<",
"<5555555<qq55wqqqqqee5%#>5qq55>$+=qq=5555<<5555qwqqq7:+&<qqqqq55q<=#@;<<<<<<=+#=$o=<q55<<><><<<<<,><<>5<5q<&+&>,<5<>=+#-<<<>>51<",
"<<<<<5qq555557eqqq5qeq%#>55<<>%@=5qq55551145<5eqqqqeq<$+;55qq5q5<;##;<55<<2<=+#$+*<15<q55><<<<5q5<>5555><>&+&;<,>5<51=+$;><<<5<<",
">,155<55<15<1<77qqq5eq&+;>5<>%+=5qq75<5<<<575qewqqqqq5;$+;555qq5;#$;5<<5<<<<;+o+*><<<175<><5<<52<,><55<<>&O%:><><<<55<;##=<<<<<>",
"<<5<<><<514<<55eqq55q7%+>=5>$+=<qqq55<qq2<157qeeeqqeq5<;$+=<55<;##;5<,<<555<=o.&;><<5<<<,>,<>5<><<<555<<&+&><,<<555q<<<=+#=<<>>>",
"<<555<<<555><55q55<571&+;<>%+*<q55<5qqqe555qwqeeeeq5555q>$+=<<=##=<5<<55<q74;o$;;>,,5<,><>>><<><<1<555>%o*><<<<5555<><5<=+#=>>><",
"><<<<5<,151,<55555155<&@>>$+=>5q5555qq5qqqqqeeyteq7517555>$+==#+=>,<5<471147;O$1>>>,555,,:,,11,,>2<<5>&+%;<<<5><5<1>><<,>=+#=>>>",
"**=*====-><<11<<555<>>%#=%+*<55<5qq55qqqq55qqqeqeq77<57<><;$++#;>><<2<<4q774:@%1<,><5751,111::11><<<>&+%><<<<5<><5<,<<<>,;*O@*=*",
"ooooooooo%:57155q<5<65%+$+*<<<55<5515555<55<5575etww75455=:*.+;<<<<<5<47qwwq:@&15<15511,1,,,,111<<5>%o%>,<q55<<<:><,>151<<>=+.oo",
"********%+$:<,<555<<5<% +=,3<<<<<55<<q5555<><55qeew775555<;##=<5q5<555157w77:@%1755q7571111,1,115<;%+&;<5<555<<<:;,<,154151>;***",
"<5<<<45>,&O%;<<55<5q<>%.&<<<<><315q517115<<<><757qqq555,>;$#=<q5q557qqqwq777:#%1555q77w7771,:111<>%+&;>><<5,<5<>,>,1<<1<555<<><<",
"<><<55<;<:%O%>>,<><qq<&+=<<55<<<2q7171115<<5<555q5qq5<<,=##;<5q5eq55qqw7571<-+&17qq51771111,1:,1>&o&:>:<<><<>,>>>>,1<<11<5<<<><<",
"<<<><5<5<<>*o%;>5755q<&@;<555<><11711,1,<,><55qq57557<<;##;55975qqq5qe714<<<;@%17q1,111111,:1,1,&o%><5<<<<><<>><<:,,1<>,<5<><<<5",
"<5<<15<<55q1*o%;<q5<5<%+>55<<>>511111,:,><>:>5q5451<<<-##;5q555qq7555545<,<1:+%1q5<<1,:::1:1,:-%o&;<1<,><<><<<<551,><,>><55<555<",
"<<<q5555<555,&o%<q555<&+;555><<571<7,,>::,,,,<545<1<<-$#=5qqq5qqqq<5<<>5,:11;+%,15<><<>;11:>1;&O&<<<5<><55<>5>;><55<><<,><<<<<5<",
"151595525q55q>*+&5q>>5%#;555<<,<71<1,::::,,,,,<155<<=@#>55555qqqqq5533,<,,1:=O$151<<5<<>:1:11&O%><<55>55<55<55>>5<<<<<1<>><<<<>5",
"55<5q55<5qqq755=+%55>5%@>555555<11,11,:::11,,,,15<<=$#;555<55qq5555<<,<:>1,,=O$,1<<5<<<:::::;$X=<<55<<5qq<<2<55<<>>><<>>>;<<><<<",
"5955555q55qqq<55=+*4q<%+,5qq54,5,1,,,,:1:1111,,,<<;##;5qqq5qq5q55555<<<::11:-+%:><<<,<>;::1:;$+=><<1555q55qq551;><>>>><>>><<5<<<",
"55<7q58qq5qqq55wq;o%55$@,57qqq<,11111:::,111<,,:>-+o=<qqqqqq5qq555515<<11,1,-O$,:11,<>>;:,,,:$O=>>><5<<qqq<5q5>;>><>>>>><><<<>>>",
"55qq55555qq5555eeq=@*>%#,55q555<771,::11,::,<,:,-#o#>7qqqqq55qq55<<57<<5,,,:-@$>,,,,>,:>,1,,:$O=>>><4<5qqq5<><><5><>><;><<<<><<5",
"555q5qeq9q55eeqeeeq=+&%#>qe51<5777711;1::::1<<>=###@><55qqq<qq555155qq<111,1:@$,,,,><,,<,,11,$O=>><<<155555<><<<5><5<<<><<<<<<<<",
"<<q55q5qq<5qqweqqqe5=+##>5qeq1<517111;:::1,,<<-#$=%+;=5q55q555q555<55q451717:@$,1;:<1,,,,,,1:$O->>5<<><553<<55<3555<<5<<><><<><<",
"5<5q55q5q75qqqqq51qq<*o+>5><e5<q5q5<<<>>><<<<;@#><%+=<5q59q555555<<<5555q555>+%<,,:,1,<,<,1,:$O-,,<,,>>,51457171<<55<><<>>><,><1",
"5555555qqqq55q5qq<55q<*+&5<5eq555q3<55<<><5<=#+;;;%+>55555<5555555<5555<5q55>+%<1,111151,,,1:$@-1<,,,<,115757777<<5<5<:><::><<<5",
"4q555qq5q5555q5q555q;5<=o&<qqq555q5q5q5<<5<;@#=<<;%.=575555551555<<555<<5qqq;+%;:,<1455111,=:%O-=:11<,<5<5551711<55<<<<:<<:><51<",
"55,<5555<5q5<5q<57<<><5<=#%<q55q557555<55<;$$-<55<$.#;555555q5555<><5<<<<5q5>+%>,<,171<111,-:$O--:15,,<551115,11>><5<>>>><<<<575",
"**&&**&**&*&&&&&&*&&****&$X$&&**&*&&&&&*&&##:5555<%+##;5<55<q555<<<55<<><<55;+$=;---;;--=--==@O*=====*---==-;==-=*==;>>>:>,<,<5<",
"++o+o++o+++++Ooo+++++.Xo+#+o++o+++++o++o++#;15qq5<%+*$#>55q5q5555><555<5<555;o.+XOO++OOOOoOoX. OXOXXOOOOoOooXXOXoo.o+*>>:><1<<;#",
";=;;;>>==;;;:;;;>;>>*#$;,:>:>:::;;:>;;;;;;><<q555<%+>>##;55qqq55<<<55<<255;;=+#&*%%%&***%%%%$$%$$%%%%%%&&%%%%&&&%%&&#o*>>;;<<=+#",
"5q5<5qq5<5q57qqqq75><$%5<<5q55q75555q57555<<55555<%#><>$#>5<<55<,>>><<>><<>>=+%;-,,,,5511<,<,::::,,,>:>:>>>,::11>><;=$o*>--,=+$;",
"25<<qq5q55qq5qeqqq<<<$%3;1q5<5555<<<5<<5<1<<<<<55<&#;=5>##****&*&%&***&&&***%o%>-1,,,4wq555<<>,>:,,:::1:::::1:141,1=:;$O*:,*@$-,",
"5550q525q5<555qqqqqq<$%5eq7q1455<53<>><<5<<>>><<55%#>555;$ooo..oo..ooooooo.oo %<,,117117qq545<<<,::;1:>::::1:1111111,:;$O*=@$;,<",
"55555<55q4<<5q7eqqq5<#%<ww7q55552q75>>>>54<<>>,<<>$#>5555<====**%o$**=**==*;*o%>,1177111511<15551,:;;11;:::1::1111111:,;$O+$:,,5",
"q555555<25<55555qqq5<$%5q57wq5555555<<<<<<55<><>;&o&,455<555<5<<*o&*><<<><q==#$>,11177775<<<5<57,:,1>11:1::::1::,,11::,,*.#-1,,1",
"555<<55<<5<55555555q<#%5555qe7q555<<<<>>><55<<<>&o&><<255555555<*o*><><<>>1>;+%>11,1,,,<<<151<551,<41111,,:::,,,1,:,,::=O$-:1,11",
"<<<<><<<<><55><5<<55>#$<q55qqq5555<55<,<<<<53<;%o%;<<<5<<<55<2<<=o*<>><<>>>5>+$>,,,::,,>,<,><5557,<511111,,,;:::11,:,:*X$:,>,111",
"<<5<<>><<<15<<5<55q5>#$>5qq75577555515<><55<5>&o%;<2<4<><<55>,<<*o&>><<5<<<<;+%;,,,,,,,,<<>,1q5275,,111111111>,,711,,=@#=:>1,,,,",
",<<><<><<<<5<<<<<554;#$>5q55q53555q5<<<><53<<=o%;<5<5<<<<<><>>5<*o&><<1<q5,<=+$;>,:,<,><<<<<1ww7771151171177111111>,-@@=,,<1,,11"
};
